<svg width="22" height="24" viewBox="0 0 22 24" fill="none" xmlns="http://www.w3.org/2000/svg">
<path d="M21.4881 15.7031C21.4881 17.0714 20.3752 18.1826 19.0046 18.1826H2.48351C1.11203 18.1826 0 17.0732 0 15.7031C0 14.3351 1.11122 13.2236 2.48034 13.2236C2.47861 13.2236 2.47948 8.2646 2.47948 8.2646C2.47948 3.69907 6.17914 0 10.7441 0C15.309 0 19.0087 3.69996 19.0087 8.2646V13.223C20.375 13.2236 21.4882 14.3344 21.4882 15.703L21.4881 15.7031ZM19.0078 14.8767C18.0946 14.8767 17.3558 14.1382 17.3558 13.2231V8.26468C17.3558 4.6132 14.3961 1.65344 10.744 1.65344C7.09184 1.65344 4.13215 4.61231 4.13215 8.26468V13.2231C4.13215 14.1356 3.39166 14.8767 2.48019 14.8767C2.0239 14.8767 1.65292 15.248 1.65292 15.7031C1.65292 16.1594 2.02389 16.5295 2.48337 16.5295H19.0045C19.4628 16.5295 19.8349 16.1579 19.8349 15.7031C19.8349 15.2483 19.4628 14.8767 19.0076 14.8767H19.0078ZM7.02484 19.4221H8.67761C8.67761 20.5633 9.60258 21.4883 10.7438 21.4883C11.8849 21.4883 12.8099 20.5633 12.8099 19.4221H14.4627C14.4627 21.4762 12.7978 23.1413 10.7438 23.1413C8.68971 23.1413 7.02484 21.4762 7.02484 19.4221Z" fill="white"/>
</svg>
