<svg width="11" height="11" viewBox="0 0 11 11" fill="none" xmlns="http://www.w3.org/2000/svg">
<path d="M8.10524 1.7367C7.88862 1.73631 7.67221 1.74785 7.45684 1.77149C7.50143 1.66915 7.52498 1.55885 7.52633 1.44731C7.52633 0.622323 6.28159 1.13217e-08 4.63157 1.13217e-08C2.9816 -9.69274e-05 1.73681 0.622323 1.73681 1.44731V5.90222C0.694723 6.11641 0 6.62012 0 7.23671V9.55242C0 10.3774 1.24475 10.9997 2.89476 10.9997C4.54478 10.9997 5.78953 10.3774 5.78953 9.55242V8.70146C6.49355 9.10194 7.29596 9.29644 8.10524 9.26302C9.75521 9.26302 11 8.64069 11 7.81571V3.18414C11 2.35916 9.75525 1.73673 8.10524 1.73673L8.10524 1.7367ZM10.421 3.18401C10.421 3.53718 9.51786 4.05241 8.10524 4.05241C6.69262 4.05241 5.78953 3.53718 5.78953 3.18401C5.78953 2.83084 6.69262 2.3156 8.10524 2.3156C9.51786 2.3157 10.421 2.83094 10.421 3.18411V3.18401ZM4.63168 0.578796C6.0443 0.578796 6.94739 1.09403 6.94739 1.4472C6.94739 1.80037 6.0443 2.3156 4.63168 2.3156C3.21906 2.3156 2.31596 1.80037 2.31596 1.4472C2.31596 1.09403 3.21906 0.578796 4.63168 0.578796ZM2.31596 2.33295C3.01999 2.73343 3.8224 2.92803 4.63168 2.89451C4.84829 2.89499 5.06471 2.88336 5.28008 2.85981C5.23549 2.96216 5.21194 3.07236 5.21058 3.184V4.59662C5.01839 4.61852 4.82514 4.63006 4.63168 4.63132C3.21906 4.63132 2.31597 4.11608 2.31597 3.76291L2.31596 2.33295ZM2.31596 4.64866C3.01999 5.04914 3.8224 5.24374 4.63168 5.21022C4.82513 5.20993 5.01829 5.19927 5.21058 5.17843V6.35077C4.50655 5.95029 3.70415 5.75569 2.89487 5.78922C2.69511 5.78922 2.50118 5.78922 2.31596 5.81529V4.64866ZM2.89487 6.36812C4.30749 6.36812 5.21058 6.88336 5.21058 7.23653C5.21058 7.58969 4.30749 8.10493 2.89487 8.10493C1.48225 8.10493 0.579156 7.58969 0.579156 7.23653C0.579156 6.88336 1.48225 6.36812 2.89487 6.36812ZM2.89487 10.4206C1.48225 10.4206 0.579156 9.90536 0.579156 9.55219V8.12223C1.28318 8.52271 2.08559 8.71731 2.89487 8.68379C3.70415 8.71732 4.50655 8.5227 5.21058 8.12223V9.55219C5.21058 9.90536 4.30749 10.4206 2.89487 10.4206ZM8.10529 8.68379C6.69267 8.68379 5.78958 8.16855 5.78958 7.81538V6.38542C6.49361 6.7859 7.29601 6.9805 8.10529 6.94698C8.91457 6.98051 9.71697 6.7859 10.421 6.38542V7.81538C10.421 8.16855 9.51791 8.68379 8.10529 8.68379ZM8.10529 6.36807C6.69267 6.36807 5.78958 5.85284 5.78958 5.49967V4.06971C6.49361 4.47019 7.29601 4.66479 8.10529 4.63127C8.91457 4.6648 9.71697 4.47018 10.421 4.06971V5.49967C10.421 5.85284 9.51791 6.36807 8.10529 6.36807Z" fill="#D65005"/>
</svg>
