<svg width="25" height="13" viewBox="0 0 25 13" fill="none" xmlns="http://www.w3.org/2000/svg">
<path d="M24.6802 1.66517C24.4772 1.56273 24.2429 1.58199 24.0578 1.71572L17.5414 6.46396L12.9844 0.245258C12.8705 0.0906667 12.6918 0 12.4995 0C12.3083 0 12.1286 0.0906667 12.0152 0.245258L7.45494 6.46396L0.935044 1.71572C0.75531 1.58199 0.523157 1.56273 0.319617 1.66517C0.116077 1.76867 0 1.97569 0 2.20009V11.803C0 12.1349 0.251414 12.4039 0.58039 12.4039H24.4175C24.7483 12.4039 24.9995 12.1349 24.9995 11.803L24.9997 2.20009C24.9995 1.97569 24.8839 1.76867 24.6798 1.66517H24.6802Z" fill="#D9D9D9"/>
</svg>
