<svg width="24" height="23" viewBox="0 0 24 23" fill="none" xmlns="http://www.w3.org/2000/svg">
<path fill-rule="evenodd" clip-rule="evenodd" d="M22.4495 12.8794V17.6842C22.4495 20.123 20.4397 22.1041 17.9605 22.1041H4.48903C2.01207 22.1041 0 20.1253 0 17.6842V4.41996C0 1.98109 2.00978 0 4.48903 0H18.3595V0.000308367L18.3338 2.21037H18.3595V2.21006C18.3509 2.21021 18.3423 2.21037 18.3338 2.21037H5.23099C3.58202 2.21037 2.24521 3.5251 2.24521 5.15016V16.9536C2.24521 18.5771 3.58044 19.8934 5.23099 19.8934H17.2187C18.8677 19.8934 20.2045 18.5786 20.2045 16.9536V12.879C20.2127 12.2755 20.7121 11.7887 21.327 11.7887C21.9419 11.7887 22.4412 12.2755 22.4493 12.879L22.4495 12.8794ZM23.561 3.32661C22.9765 2.7512 22.028 2.75196 21.4418 3.32923L10.8643 13.744C10.2784 14.321 10.2732 15.2512 10.8617 15.8306C11.4461 16.406 12.3946 16.4053 12.9808 15.828L23.5583 5.41317C24.1442 4.83638 24.1494 3.90616 23.5609 3.32661H23.561Z" fill="#363648"/>
<path fill-rule="evenodd" clip-rule="evenodd" d="M19.3412 1.10519C19.3412 1.71561 18.8465 2.21037 18.236 2.21037C17.6256 2.21037 17.1309 1.71561 17.1309 1.10519C17.1309 0.494769 17.6256 0 18.236 0C18.8465 0 19.3412 0.494769 19.3412 1.10519Z" fill="#363648"/>
</svg>
