<svg width="25" height="12" viewBox="0 0 25 12" fill="none" xmlns="http://www.w3.org/2000/svg">
<path d="M8.29363 3.6952C8.12792 3.60568 7.93595 3.57024 7.74708 3.59424C7.55803 3.61842 7.38279 3.70074 7.24802 3.82846L0.277299 10.4436C0.104196 10.5966 0.00422572 10.8098 0.000142864 11.0341C-0.00413606 11.2583 0.0878595 11.4747 0.255127 11.6334C0.422395 11.792 0.650342 11.8794 0.886675 11.8754C1.12299 11.8715 1.34763 11.7766 1.50866 11.6124L8.01484 5.44467L15.5666 9.54059C15.7323 9.62993 15.9243 9.66537 16.1132 9.64119C16.3021 9.61701 16.4773 9.53487 16.6122 9.40733L23.2573 3.10214V5.51544C23.2573 5.81076 23.4234 6.08373 23.693 6.23139C23.9626 6.37924 24.2948 6.37924 24.5643 6.23139C24.8339 6.08373 25 5.81075 25 5.51544V1.10521C24.9992 0.885933 24.9066 0.675703 24.7431 0.520851C24.5793 0.365811 24.3576 0.278689 24.1263 0.27832H19.4792C19.1678 0.27832 18.8802 0.435945 18.7246 0.691768C18.569 0.947591 18.569 1.26285 18.7246 1.51866C18.8802 1.77449 19.1679 1.93211 19.4792 1.93211H22.0224L15.8484 7.79126L8.29363 3.6952Z" fill="white"/>
</svg>
