<svg width="31" height="32" viewBox="0 0 31 32" fill="none" xmlns="http://www.w3.org/2000/svg">
<path d="M21.4451 16.4809L18.0328 15.9837L16.5057 12.8908V12.8911C16.3817 12.64 16.1682 12.4449 15.9073 12.3437C15.6464 12.2422 15.357 12.2422 15.0962 12.3437C14.8353 12.4449 14.6217 12.64 14.4977 12.8911L12.9706 15.984L9.55831 16.4809C9.27727 16.5178 9.02102 16.6602 8.84114 16.879C8.66127 17.0978 8.57105 17.3768 8.58921 17.6596C8.60737 17.9424 8.73218 18.2076 8.93828 18.4019L11.408 20.8102L10.8237 24.1937C10.7799 24.4673 10.8387 24.7478 10.9889 24.9807C11.1394 25.2136 11.3703 25.3828 11.6378 25.4557C11.9053 25.5286 12.1904 25.4998 12.438 25.3753L15.4888 23.7611L18.5397 25.3753C18.7011 25.4603 18.8804 25.5044 19.0629 25.5044C19.2955 25.5024 19.5215 25.4266 19.7086 25.2882C19.8775 25.1657 20.0089 24.998 20.0879 24.8045C20.1666 24.6111 20.1894 24.3996 20.1539 24.1937L19.5956 20.7973L22.0653 18.4019C22.2662 18.2071 22.3867 17.9436 22.4029 17.664C22.419 17.3844 22.3296 17.1091 22.1524 16.8924C21.9748 16.6756 21.7226 16.5335 21.4453 16.494L21.4451 16.4809ZM18.4493 20.1097C18.2977 20.2582 18.2288 20.4721 18.2651 20.6811L18.8462 24.0709L15.8017 22.4567H15.802C15.6138 22.3581 15.3895 22.3581 15.2013 22.4567L12.1568 24.0709L12.7379 20.6811H12.7382C12.7745 20.4721 12.7056 20.2582 12.554 20.1097L10.0906 17.7077L13.4933 17.2137H13.4936C13.7046 17.1831 13.8871 17.0502 13.9811 16.8586L15.5016 13.7754L17.022 16.8586C17.116 17.0502 17.2985 17.1831 17.5095 17.2137L20.9123 17.7077L18.4493 20.1097Z" fill="white"/>
<path d="M30.908 0.322851C30.7936 0.124247 30.582 0.00144892 30.3528 9.96597e-06H18.7305C18.5025 0.00260421 18.2924 0.125398 18.1785 0.322851L15.7379 4.34224L12.7966 0.268097C12.6756 0.10005 12.481 0.000312394 12.2738 2.46037e-05H0.651481C0.419729 -0.00199317 0.204691 0.120225 0.0879521 0.320268C-0.0287872 0.520599 -0.0293628 0.767922 0.0865109 0.968548L6.34645 12.2359C4.54836 14.5355 3.6813 17.4278 3.91825 20.3375C4.1549 23.2472 5.47799 25.961 7.62432 27.9396C9.77064 29.9181 12.5831 31.0167 15.5024 31.0167C18.4217 31.0167 21.234 29.9181 23.3804 27.9396C25.5268 25.9608 26.8499 23.2469 27.0865 20.3375C27.3234 17.4279 26.4564 14.5356 24.6583 12.2359L30.9182 0.968548C31.0307 0.767058 31.0269 0.520895 30.9084 0.322866L30.908 0.322851ZM1.74898 1.29137H11.9508L15.0177 5.53989L13.5649 7.90958C11.1681 8.31774 8.95951 9.46697 7.25019 11.1962L1.74898 1.29137ZM15.5024 29.7014C12.7625 29.7014 10.1349 28.613 8.19724 26.6756C6.2599 24.738 5.17146 22.1103 5.17146 19.3705C5.17146 16.6306 6.2599 14.003 8.19724 12.0653C10.1349 10.128 12.7625 9.03956 15.5024 9.03956C18.2422 9.03956 20.8699 10.128 22.8075 12.0653C24.7449 14.003 25.8333 16.6306 25.8333 19.3705C25.8333 22.1103 24.7449 24.738 22.8075 26.6756C20.8699 28.613 18.2422 29.7014 15.5024 29.7014ZM23.7538 11.1965C21.5753 8.98938 18.6031 7.74761 15.5024 7.74842H15.1795L19.0957 1.2916H29.2554L23.7538 11.1965Z" fill="white"/>
</svg>
