<svg width="27" height="27" viewBox="0 0 27 27" fill="none" xmlns="http://www.w3.org/2000/svg">
<rect width="27" height="27" rx="3" fill="#252534"/>
<path d="M6 12.5C6 16.6356 9.3645 20.0005 13.5 20.0005C17.6358 20.0005 21 16.636 21 12.5C21 8.36444 17.6355 5 13.5 5C9.36422 5 6 8.36472 6 12.5ZM20.0816 12.5C20.0816 16.1294 17.1293 19.0816 13.5005 19.0816C9.87181 19.0816 6.91945 16.1295 6.91945 12.5C6.91945 8.87099 9.87181 5.9189 13.5005 5.9189C17.1293 5.9189 20.0816 8.87126 20.0816 12.5Z" fill="white"/>
<path d="M12.6099 14.2394C12.6129 13.8022 12.6611 13.4896 12.755 13.3015C12.8486 13.1134 13.0566 12.8774 13.379 12.5929C13.6074 12.3605 13.7889 12.1382 13.9236 11.9255C14.0582 11.7131 14.1257 11.4783 14.1257 11.2215C14.1257 10.9251 14.0489 10.6949 13.8951 10.5314C13.7413 10.3678 13.5224 10.286 13.2383 10.286C12.9953 10.286 12.7889 10.3555 12.6189 10.4946C12.4491 10.6337 12.3642 10.8395 12.3642 11.1113H11.3362L11.3228 11.0839C11.3143 10.5398 11.489 10.1154 11.8477 9.81105C12.2063 9.50674 12.6701 9.35474 13.2383 9.35474C13.8534 9.35474 14.3329 9.51828 14.6772 9.84535C15.0215 10.1726 15.1935 10.6266 15.1935 11.2076C15.1935 11.596 15.0857 11.9559 14.8705 12.2876C14.6552 12.6193 14.3835 12.9227 14.0553 13.1979C13.8885 13.3507 13.7838 13.4962 13.7412 13.6337C13.6985 13.7713 13.6774 13.9731 13.6774 14.2392L12.6099 14.2394ZM13.695 16.1289H12.6053V15.0602H13.695V16.1289Z" fill="white"/>
</svg>
