<svg width="27" height="27" viewBox="0 0 27 27" fill="none" xmlns="http://www.w3.org/2000/svg">
<rect width="27" height="27" rx="3" fill="#252534"/>
<path d="M18.4478 11.0039H13.8643V9.08984C13.865 8.86084 13.9548 8.64131 14.1142 8.47935C14.2736 8.31738 14.4896 8.22609 14.715 8.22543H16.0249C16.4438 8.22543 16.8457 8.0563 17.1419 7.7553C17.4382 7.45419 17.6046 7.04591 17.6046 6.6201V5.37046C17.6046 5.16583 17.4413 5 17.2401 5C17.0387 5 16.8755 5.16583 16.8755 5.37046V6.6201C16.8755 6.84932 16.7859 7.06928 16.6263 7.23135C16.4668 7.39343 16.2505 7.4845 16.0249 7.4845H14.715C14.2962 7.48516 13.8947 7.65452 13.5987 7.95542C13.3026 8.25642 13.1359 8.66425 13.1353 9.08983V11.0039H8.55183C7.87459 11.0052 7.22546 11.2795 6.74709 11.7666C6.26861 12.2537 6 12.9138 6 13.602V17.5288C6.08105 18.4373 6.60552 19.2438 7.39614 19.6759C8.18675 20.108 9.13805 20.108 9.92866 19.6759C10.7193 19.2438 11.2436 18.4373 11.3248 17.5288V16.6521C11.3248 16.5838 11.3792 16.5286 11.4463 16.5286H15.5537C15.5859 16.5286 15.6168 16.5416 15.6396 16.5647C15.6624 16.5879 15.6752 16.6193 15.6752 16.6521V17.5239C15.7564 18.4324 16.2807 19.2389 17.0713 19.671C17.862 20.1031 18.8132 20.1031 19.6039 19.671C20.3945 19.2389 20.919 18.4324 21 17.5239V13.6019C21 12.9137 20.7314 12.2536 20.2529 11.7665C19.7745 11.2794 19.1254 11.005 18.4482 11.0037L18.4478 11.0039ZM20.2705 17.524C20.2022 18.1765 19.8195 18.7519 19.2492 19.0598C18.679 19.3675 17.9955 19.3675 17.4253 19.0598C16.855 18.7519 16.4723 18.1765 16.4039 17.524V16.6522C16.4039 16.423 16.3143 16.2031 16.1548 16.0409C15.9952 15.8789 15.7789 15.7878 15.5533 15.7878H11.4459C11.2204 15.7878 11.004 15.8789 10.8445 16.0409C10.685 16.2031 10.5953 16.423 10.5953 16.6522V17.524C10.527 18.1765 10.1442 18.7519 9.57398 19.0598C9.00373 19.3675 8.3203 19.3675 7.75005 19.0598C7.1798 18.7519 6.79711 18.1765 6.72876 17.524V13.6021C6.72941 13.111 6.92156 12.6402 7.26332 12.293C7.60498 11.9458 8.06824 11.7504 8.55149 11.7497H18.4477C18.931 11.7504 19.3942 11.9458 19.7359 12.293C20.0777 12.6402 20.2698 13.111 20.2705 13.6021L20.2705 17.524ZM9.11051 12.6142C8.74955 12.6142 8.40333 12.7599 8.14816 13.0192C7.89287 13.2787 7.74954 13.6304 7.74954 13.9972C7.74954 14.364 7.89286 14.7158 8.14816 14.9752C8.40335 15.2345 8.74955 15.3803 9.11051 15.3803C9.47136 15.3803 9.81758 15.2345 10.0729 14.9752C10.328 14.7157 10.4715 14.364 10.4715 13.9972C10.4715 13.6304 10.3281 13.2787 10.0729 13.0192C9.81757 12.7599 9.47136 12.6142 9.11051 12.6142ZM9.11051 14.6369C8.94278 14.6369 8.78188 14.5691 8.66339 14.4485C8.5448 14.3279 8.4784 14.1644 8.47862 13.9939C8.47884 13.8235 8.54567 13.6601 8.66448 13.5398C8.78339 13.4195 8.94439 13.3522 9.11212 13.3527C9.27975 13.3531 9.44043 13.4212 9.55869 13.5422C9.67695 13.663 9.74303 13.8268 9.74238 13.9972C9.74303 14.1679 9.67673 14.3319 9.55815 14.4529C9.43956 14.5739 9.27846 14.6418 9.1105 14.6418L9.11051 14.6369ZM19.2498 13.9972H19.2497C19.2497 14.2018 19.0865 14.3677 18.8851 14.3677H18.2532V15.0074C18.2532 15.2119 18.0901 15.3778 17.8887 15.3778C17.6874 15.3778 17.5241 15.2119 17.5241 15.0074V14.3726H16.902C16.7007 14.3726 16.5375 14.2067 16.5375 14.0022C16.5375 13.7975 16.7007 13.6317 16.902 13.6317H17.5339V12.9896C17.5339 12.7849 17.6971 12.6191 17.8985 12.6191C18.0998 12.6191 18.263 12.7849 18.263 12.9896V13.6317H18.8949C19.0925 13.637 19.2498 13.8014 19.2497 14.0022L19.2498 13.9972Z" fill="#FBFBFB"/>
</svg>
