<svg width="27" height="27" viewBox="0 0 27 27" fill="none" xmlns="http://www.w3.org/2000/svg">
<rect width="27" height="27" rx="3" fill="#252534"/>
<path d="M15.9788 15.4376L14.2319 15.183L13.45 13.5996V13.5997C13.3866 13.4712 13.2772 13.3713 13.1437 13.3195C13.0101 13.2675 12.862 13.2675 12.7284 13.3195C12.5949 13.3713 12.4855 13.4712 12.4221 13.5997L11.6402 15.1832L9.89331 15.4376C9.74943 15.4565 9.61824 15.5294 9.52615 15.6414C9.43406 15.7534 9.38787 15.8962 9.39717 16.041C9.40647 16.1857 9.47037 16.3215 9.57588 16.421L10.8403 17.654L10.5412 19.3862C10.5187 19.5262 10.5488 19.6698 10.6257 19.789C10.7027 19.9083 10.8209 19.9949 10.9579 20.0322C11.0948 20.0696 11.2408 20.0548 11.3676 19.9911L12.9295 19.1647L14.4914 19.9911C14.574 20.0346 14.6658 20.0572 14.7592 20.0572C14.8783 20.0561 14.994 20.0173 15.0898 19.9465C15.1762 19.8838 15.2435 19.7979 15.284 19.6989C15.3243 19.5998 15.3359 19.4915 15.3178 19.3862L15.0319 17.6473L16.2963 16.421C16.3992 16.3213 16.4609 16.1864 16.4691 16.0432C16.4774 15.9001 16.4316 15.7592 16.3409 15.6482C16.25 15.5372 16.1209 15.4645 15.9789 15.4443L15.9788 15.4376ZM14.4451 17.2953C14.3675 17.3713 14.3322 17.4808 14.3508 17.5878L14.6483 19.3233L13.0896 18.4969H13.0898C12.9934 18.4464 12.8786 18.4464 12.7822 18.4969L11.2236 19.3233L11.5211 17.5878H11.5212C11.5398 17.4808 11.5046 17.3713 11.4269 17.2953L10.1658 16.0656L11.9079 15.8127H11.908C12.016 15.797 12.1094 15.729 12.1576 15.6309L12.936 14.0525L13.7144 15.6309C13.7625 15.729 13.8559 15.797 13.9639 15.8127L15.706 16.0656L14.4451 17.2953Z" fill="white"/>
<path d="M20.8235 7.16528C20.7649 7.06361 20.6565 7.00074 20.5392 7.00001H14.5892C14.4724 7.00133 14.3649 7.0642 14.3066 7.16528L13.0571 9.22303L11.5513 7.13725C11.4893 7.05122 11.3897 7.00016 11.2836 7.00001H5.33353C5.21488 6.99898 5.10479 7.06155 5.04503 7.16396C4.98526 7.26652 4.98497 7.39314 5.04429 7.49585L8.24909 13.2642C7.32855 14.4415 6.88465 15.9222 7.00596 17.4119C7.12712 18.9015 7.80448 20.2908 8.9033 21.3038C10.0021 22.3167 11.442 22.8791 12.9365 22.8791C14.431 22.8791 15.8708 22.3167 16.9697 21.3038C18.0685 20.2907 18.7459 18.9013 18.867 17.4119C18.9883 15.9223 18.5444 14.4416 17.6239 13.2642L20.8287 7.49585C20.8863 7.3927 20.8843 7.26667 20.8237 7.16529L20.8235 7.16528ZM5.8954 7.66112H11.1182L12.6884 9.83617L11.9446 11.0493C10.7176 11.2583 9.58685 11.8466 8.71176 12.7319L5.8954 7.66112ZM12.9365 22.2057C11.5338 22.2057 10.1886 21.6485 9.19661 20.6567C8.20478 19.6647 7.64755 18.3194 7.64755 16.9168C7.64755 15.5141 8.20478 14.1689 9.19661 13.1769C10.1886 12.1851 11.5338 11.6278 12.9365 11.6278C14.3392 11.6278 15.6844 12.1851 16.6764 13.1769C17.6682 14.1689 18.2254 15.5141 18.2254 16.9168C18.2254 18.3194 17.6682 19.6647 16.6764 20.6567C15.6844 21.6485 14.3392 22.2057 12.9365 22.2057ZM17.1609 12.7321C16.0455 11.6021 14.5239 10.9664 12.9365 10.9668H12.7712L14.7761 7.66124H19.9774L17.1609 12.7321Z" fill="white"/>
</svg>
