<svg width="27" height="27" viewBox="0 0 27 27" fill="none" xmlns="http://www.w3.org/2000/svg">
<rect width="27" height="27" rx="3" fill="#252534"/>
<path d="M19.7286 10.9173C20.4225 10.2461 20.947 9.41068 21.2563 8.48347L21.7902 6.90507C21.8317 6.78474 21.839 6.65474 21.8113 6.5303C21.7836 6.40585 21.7221 6.2921 21.6339 6.20236C21.5457 6.11262 21.4345 6.0506 21.3134 6.02356C21.1922 5.99652 21.0661 6.00558 20.9498 6.04968L19.4171 6.58939C18.5167 6.90794 17.7055 7.448 17.0538 8.16269L13.9044 11.6403L10.755 8.16269C10.1033 7.448 9.29209 6.90794 8.39174 6.58939L6.85907 6.04968C6.70054 5.98344 6.52319 5.98344 6.36466 6.04968C6.21929 6.12802 6.10675 6.25841 6.04824 6.41627C5.98392 6.57953 5.98392 6.76217 6.04824 6.92543L6.55253 8.48347C6.86186 9.41068 7.38628 10.2461 8.08026 10.9173L11.5411 14.2472L10.6116 15.2655L10.5573 15.2095C10.1415 14.8945 9.65167 14.6994 9.1383 14.6443C9.02056 14.6218 8.89939 14.6271 8.78392 14.6598C8.66845 14.6925 8.5617 14.7518 8.47172 14.8332C8.38175 14.9146 8.31088 15.0159 8.26448 15.1296C8.21808 15.2433 8.19736 15.3664 8.20386 15.4895C8.215 15.6786 8.28823 15.8581 8.41152 15.9987C8.53317 16.1364 8.69741 16.2263 8.87626 16.2533C9.32123 16.3195 9.41517 16.3907 9.41517 16.3958L9.7662 16.7573L6.79974 19.9752C6.59106 20.176 6.46658 20.4526 6.45273 20.7464C6.43889 21.0402 6.53676 21.3279 6.72558 21.5485C6.81427 21.6417 6.9206 21.715 7.03797 21.7641C7.15534 21.8131 7.28124 21.8368 7.40786 21.8337C7.72381 21.827 8.0257 21.6979 8.2533 21.4722L11.378 18.4172L11.729 18.7736C11.81 18.9475 11.8571 19.1361 11.8674 19.3286C11.8936 19.5134 11.9815 19.6831 12.1159 19.8085C12.2503 19.9339 12.4229 20.0073 12.6041 20.016H12.6486C12.7644 20.018 12.8793 19.9941 12.9852 19.9457C13.0911 19.8973 13.1854 19.8257 13.2617 19.7359C13.3346 19.6427 13.3873 19.5345 13.4163 19.4186C13.4453 19.3027 13.4499 19.1817 13.4298 19.0638C13.3792 18.5361 13.1932 18.0318 12.8909 17.6025L12.8365 17.5465L13.9143 16.5282L14.9921 17.5465L14.9377 17.6025C14.6266 18.0291 14.432 18.5337 14.3741 19.0638C14.3547 19.1821 14.3601 19.3033 14.3899 19.4192C14.4198 19.5351 14.4734 19.6431 14.5471 19.7359C14.6217 19.8276 14.7147 19.9015 14.8197 19.9525C14.9247 20.0035 15.0392 20.0303 15.1553 20.0312H15.1998C15.3809 20.0226 15.5536 19.9492 15.688 19.8238C15.8224 19.6984 15.9102 19.5287 15.9364 19.3439C15.9439 19.1509 15.9911 18.9617 16.0749 18.7889L16.4259 18.4274L19.5506 21.4824C19.7782 21.7081 20.0801 21.8372 20.396 21.8439C20.5226 21.847 20.6485 21.8233 20.7659 21.7743C20.8833 21.7252 20.9896 21.6519 21.0783 21.5587C21.2671 21.3381 21.365 21.0503 21.3511 20.7566C21.3373 20.4628 21.2128 20.1862 21.0041 19.9854L18.0377 16.7675L18.3838 16.406C18.5534 16.3201 18.7387 16.2715 18.9276 16.2635C19.1231 16.2306 19.2996 16.1234 19.422 15.963C19.5457 15.7978 19.6041 15.5904 19.5852 15.3826C19.5691 15.1719 19.4732 14.9762 19.3182 14.8378C19.2313 14.7575 19.128 14.6983 19.0158 14.6648C18.9037 14.6313 18.7857 14.6243 18.6705 14.6443C18.1554 14.6985 17.6638 14.8937 17.2466 15.2095L17.1922 15.2655L16.2627 14.2472L19.7286 10.9173ZM8.40657 10.571C7.76694 9.95236 7.28476 9.18128 7.00245 8.32563L6.46354 6.74723C6.45377 6.71803 6.45112 6.68681 6.45582 6.65631C6.46052 6.62581 6.47243 6.59697 6.4905 6.57232C6.50857 6.54768 6.53225 6.52799 6.55945 6.51498C6.58664 6.50197 6.61653 6.49605 6.64647 6.49774C6.666 6.49315 6.68628 6.49315 6.7058 6.49774L8.23847 7.0069C9.07391 7.31075 9.82308 7.82334 10.4188 8.49874L13.5929 12.0018L12.8909 12.7655L8.93559 8.71768C8.89034 8.67216 8.83064 8.64504 8.76749 8.64131C8.73581 8.64098 8.70442 8.64762 8.67543 8.66079C8.64644 8.67396 8.62051 8.69336 8.59939 8.71768C8.57727 8.74039 8.55971 8.76737 8.54774 8.79707C8.53576 8.82678 8.52959 8.85863 8.52959 8.8908C8.52959 8.92296 8.53576 8.95481 8.54774 8.98452C8.55971 9.01423 8.57727 9.0412 8.59939 9.06391L12.5547 13.1372L11.8674 13.9009L8.40657 10.571ZM7.94677 21.1158C7.84076 21.2398 7.69293 21.3178 7.53322 21.3339C7.3735 21.3499 7.21382 21.3029 7.0865 21.2023C6.98882 21.0712 6.94317 20.9067 6.95877 20.7423C6.97438 20.5778 7.05007 20.4256 7.17055 20.3164L10.137 17.1036L11.0764 18.071L7.94677 21.1158ZM12.9799 19.1606C12.9878 19.2084 12.9852 19.2575 12.9724 19.3041C12.9596 19.3508 12.9368 19.394 12.9057 19.4304C12.8666 19.4764 12.8156 19.5099 12.7587 19.5271C12.7018 19.5442 12.6413 19.5442 12.5843 19.5272C12.5276 19.5093 12.4768 19.4755 12.4375 19.4297C12.3982 19.3839 12.372 19.3277 12.3619 19.2675C12.2827 18.6922 12.174 18.519 12.0949 18.4325L9.77114 16.0445C9.69204 15.958 9.52394 15.851 8.96526 15.7645H8.93559C8.87728 15.7555 8.82264 15.7297 8.778 15.6901C8.73337 15.6504 8.70058 15.5985 8.68344 15.5404C8.66707 15.481 8.66719 15.418 8.68379 15.3586C8.7004 15.2992 8.73282 15.2458 8.77738 15.2044C8.83996 15.1616 8.91547 15.1435 8.98998 15.1535H9.0493C9.47098 15.1883 9.87655 15.3357 10.226 15.5812L12.5448 17.9691C12.7832 18.329 12.9263 18.7467 12.9601 19.1809L12.9799 19.1606ZM11.9021 16.5791L19.1897 9.04354C19.2332 8.99705 19.2575 8.935 19.2575 8.87043C19.2575 8.80586 19.2332 8.74381 19.1897 8.69731C19.1676 8.67453 19.1414 8.65645 19.1126 8.64412C19.0837 8.63178 19.0528 8.62543 19.0216 8.62543C18.9903 8.62543 18.9594 8.63178 18.9305 8.64412C18.9017 8.65645 18.8755 8.67453 18.8535 8.69731L11.556 16.2329L10.9528 15.6168L17.4048 8.48856C18.0013 7.83539 18.7452 7.34394 19.5703 7.05781L21.103 6.49774C21.1341 6.48585 21.1678 6.4834 21.2002 6.49067C21.2326 6.49794 21.2622 6.51464 21.2857 6.53877C21.3091 6.5629 21.3253 6.59346 21.3324 6.6268C21.3394 6.66014 21.337 6.69487 21.3255 6.72686L20.8311 8.30526C20.5446 9.17085 20.0536 9.94947 19.4022 10.571L12.4904 17.1901L11.9021 16.5791ZM14.2554 16.1718L14.913 15.5404L15.9018 16.5588L15.3184 17.1901L14.2554 16.1718ZM20.6828 20.3113C20.7507 20.3589 20.8076 20.4214 20.8494 20.4943C20.8912 20.5672 20.9169 20.6487 20.9246 20.733C20.9323 20.8173 20.9218 20.9022 20.894 20.9819C20.8661 21.0615 20.8215 21.1339 20.7634 21.1937C20.7053 21.2536 20.6351 21.2995 20.5577 21.3282C20.4804 21.3569 20.3979 21.3676 20.316 21.3597C20.2342 21.3518 20.155 21.3253 20.0843 21.2823C20.0135 21.2392 19.9528 21.1806 19.9065 21.1107L16.7868 18.0557L17.7262 17.0883L20.6828 20.3113ZM18.7595 15.1535H18.8238C18.8986 15.1551 18.9704 15.184 19.0265 15.2349C19.0711 15.2752 19.1037 15.3277 19.1203 15.3863C19.137 15.4449 19.137 15.5072 19.1204 15.5659C19.1031 15.6243 19.0703 15.6767 19.0258 15.7171C18.9813 15.7576 18.9268 15.7845 18.8683 15.795C18.3096 15.8765 18.1415 15.9834 18.0575 16.07L15.7387 18.4579C15.6546 18.5445 15.5508 18.7176 15.4717 19.293C15.4615 19.3532 15.4353 19.4093 15.3961 19.4552C15.3568 19.501 15.306 19.5347 15.2492 19.5526C15.1923 19.5697 15.1318 19.5696 15.0748 19.5525C15.0179 19.5354 14.9669 19.5019 14.9278 19.4559C14.8967 19.4194 14.874 19.3763 14.8611 19.3296C14.8483 19.2829 14.8458 19.2339 14.8537 19.186C14.8874 18.7518 15.0306 18.3341 15.269 17.9742L17.5878 15.5863C17.9353 15.3398 18.3391 15.1906 18.7595 15.1535ZM16.8462 15.6168L16.2529 16.2329L15.264 15.2146L15.9167 14.5832L16.8462 15.6168Z" fill="white" stroke="white" stroke-width="0.1" stroke-miterlimit="10"/>
</svg>
