<svg width="31" height="31" viewBox="0 0 31 31" fill="none" xmlns="http://www.w3.org/2000/svg">
<path d="M0 15.5C0 24.0468 6.9533 31.0011 15.5 31.0011C24.0473 31.0011 31 24.0478 31 15.5C31 6.95318 24.0467 0 15.5 0C6.95273 0 0 6.95375 0 15.5ZM29.1021 15.5C29.1021 23.0007 23.0005 29.1021 15.5011 29.1021C8.00174 29.1021 1.9002 23.001 1.9002 15.5C1.9002 8.00004 8.00174 1.89907 15.5011 1.89907C23.0005 1.89907 29.1021 8.00061 29.1021 15.5Z" fill="white"/>
<path d="M13.6606 19.0949C13.6668 18.1914 13.7665 17.5455 13.9605 17.1567C14.1539 16.7679 14.5839 16.2802 15.25 15.6922C15.7221 15.212 16.0972 14.7526 16.3755 14.313C16.6539 13.874 16.7934 13.3887 16.7934 12.858C16.7934 12.2455 16.6346 11.7697 16.3167 11.4317C15.9988 11.0937 15.5463 10.9246 14.9593 10.9246C14.4571 10.9246 14.0305 11.0682 13.6792 11.3557C13.3284 11.6432 13.1529 12.0685 13.1529 12.6302H11.0284L11.0006 12.5736C10.983 11.4491 11.344 10.5719 12.0853 9.94304C12.8266 9.31413 13.7851 9 14.9593 9C16.2305 9 17.2214 9.33799 17.933 10.0139C18.6445 10.6903 19 11.6285 19 12.8293C19 13.6318 18.7772 14.3757 18.3325 15.0612C17.8876 15.7467 17.326 16.3739 16.6477 16.9424C16.303 17.2583 16.0867 17.5591 15.9985 17.8431C15.9103 18.1276 15.8669 18.5447 15.8669 19.0945L13.6606 19.0949ZM15.9031 23H13.6511V20.7913H15.9031V23Z" fill="white"/>
</svg>
