<svg width="12" height="15" viewBox="0 0 12 15" fill="none" xmlns="http://www.w3.org/2000/svg">
<path d="M10.8399 0H3.65345C3.55095 0 3.45255 0.0407854 3.38004 0.113291L0.113291 3.38004C0.0407852 3.45255 0 3.55084 0 3.65345V13.5344C0 14.1741 0.520382 14.6944 1.16009 14.6944H10.8399C11.4796 14.6944 12 14.1741 12 13.5344L11.9999 1.16009C11.9999 0.520382 11.4795 0 10.8398 0H10.8399ZM3.26675 1.32021V2.88017C3.26675 3.09348 3.09336 3.26686 2.88006 3.26686H1.32021L3.26675 1.32021ZM11.2266 13.5343C11.2266 13.7476 11.0532 13.921 10.8399 13.921H1.16009C0.946778 13.921 0.773392 13.7476 0.773392 13.5343V4.04006H2.88014C3.51984 4.04006 4.04023 3.51968 4.04023 2.87997L4.04012 0.773226H10.8399C11.0532 0.773226 11.2266 0.946612 11.2266 1.15992L11.2266 13.5343Z" fill="#D65005"/>
</svg>
