<svg width="30" height="17" viewBox="0 0 30 17" fill="none" xmlns="http://www.w3.org/2000/svg">
<path d="M14.74 6.56873C13.6498 6.56873 12.6262 5.88433 12.2385 4.85475C11.8327 3.78272 12.1477 2.57144 13.0199 1.82642C13.8617 1.10568 15.1156 1.00282 16.0725 1.55392C17.0235 2.09891 17.5685 3.21344 17.3928 4.30364C17.1809 5.61183 16.0482 6.55061 14.74 6.56878C13.9586 6.58082 13.9586 7.79228 14.74 7.78001C16.4056 7.76184 17.8712 6.71409 18.4226 5.1393C18.9494 3.63719 18.4407 1.86254 17.1932 0.869298C15.9274 -0.142111 14.1285 -0.299693 12.7233 0.548214C11.3182 1.40226 10.6156 3.05562 10.9244 4.66675C11.2696 6.45341 12.9291 7.77387 14.7341 7.77387C15.5214 7.78 15.5214 6.56876 14.74 6.56876L14.74 6.56873Z" fill="white"/>
<path d="M9.60961 16.0058C9.60961 15.1336 9.60349 14.2675 9.60961 13.3953C9.62166 11.7903 10.7059 10.464 12.1534 9.78546C12.8923 9.43417 13.71 9.30087 14.5275 9.30087C15.2907 9.30087 16.0235 9.33721 16.7624 9.57338C18.2704 10.058 19.5604 11.2754 19.8209 12.8683C19.8997 13.3588 19.8573 13.9465 19.8573 14.4672V16.0116C19.8573 16.7929 21.0685 16.7929 21.0685 16.0116C21.0685 15.0303 21.135 14.0251 21.0565 13.0497C20.893 11.1116 19.5725 9.4703 17.816 8.68889C14.5029 7.21717 9.43999 8.36189 8.53094 12.3169C8.37948 12.9771 8.40378 13.6433 8.40378 14.3157V16.0054C8.39786 16.787 9.60932 16.787 9.60932 16.0058L9.60961 16.0058Z" fill="white"/>
<path d="M5.53371 8.62912C4.74639 8.62912 4.01343 8.13862 3.72276 7.40561C3.41393 6.63036 3.64397 5.73998 4.27387 5.20088C4.87948 4.67996 5.78192 4.58916 6.47244 4.97676C7.1689 5.36438 7.56875 6.14575 7.47179 6.93917C7.35053 7.90835 6.49055 8.61703 5.53365 8.62909C4.75229 8.64113 4.75229 9.85259 5.53365 9.84031C6.90246 9.81602 8.10784 8.94993 8.5377 7.64786C8.93737 6.44252 8.51954 5.03143 7.53219 4.23801C6.4965 3.40824 5.01867 3.28111 3.88597 3.98367C2.74737 4.68625 2.19016 6.02466 2.44448 7.33312C2.72923 8.77461 4.07967 9.83463 5.53344 9.83463C6.30891 9.84055 6.3148 8.62908 5.53365 8.62908L5.53371 8.62912Z" fill="white"/>
<path d="M1.71152 16.0966V14.5945C1.71152 14.0191 1.7054 13.4861 1.95382 12.9713C2.30511 12.2263 2.95933 11.6631 3.71025 11.342C4.44305 11.0271 5.24259 10.9907 6.02395 11.0332C7.12621 11.0877 8.14984 11.5905 8.8463 12.4504C9.05226 12.7047 9.48826 12.6625 9.70035 12.4504C9.95468 12.1961 9.90631 11.8507 9.70035 11.5964C8.35582 9.92483 5.87248 9.4523 3.86756 10.0157C1.93554 10.5548 0.5 12.1841 0.5 14.2251V16.1026C0.5 16.878 1.71123 16.878 1.71123 16.0967L1.71152 16.0966Z" fill="white"/>
<path d="M23.9829 8.64669C23.1956 8.64669 22.4626 8.1562 22.172 7.42319C21.8632 6.64794 22.0932 5.75756 22.7231 5.21846C23.3287 4.69754 24.2311 4.60674 24.9217 4.99434C25.6181 5.38196 26.018 6.16333 25.921 6.95675C25.8 7.91997 24.9459 8.6285 23.9829 8.64667C23.2015 8.65871 23.2015 9.87017 23.9829 9.85789C25.3517 9.8336 26.5571 8.96751 26.9869 7.66543C27.3866 6.4601 26.9688 5.04901 25.9814 4.25558C24.9457 3.42582 23.4679 3.29868 22.3352 4.00125C21.1966 4.70383 20.6394 6.04224 20.8937 7.3507C21.1785 8.79218 22.5289 9.85221 23.9827 9.85221C24.7642 9.85812 24.7642 8.64666 23.9829 8.64666L23.9829 8.64669Z" fill="white"/>
<path d="M20.6938 12.486C21.3055 11.7107 22.1837 11.2202 23.1649 11.0747C23.9038 10.9657 24.7456 11.002 25.4543 11.2139C26.2477 11.45 26.9866 11.9467 27.4226 12.6492C27.7678 13.2004 27.8466 13.7456 27.8466 14.3876V16.1077C27.8466 16.8891 29.0578 16.8891 29.0578 16.1077C29.0578 14.7814 29.2274 13.3641 28.543 12.1649C27.5011 10.3297 25.333 9.65752 23.3343 9.83917C21.9897 9.96021 20.6815 10.5538 19.8336 11.6258C19.6338 11.8802 19.5852 12.2314 19.8336 12.4799C20.0457 12.6981 20.4879 12.7465 20.6938 12.486L20.6938 12.486Z" fill="white"/>
</svg>
