<svg width="31" height="31" viewBox="0 0 31 31" fill="none" xmlns="http://www.w3.org/2000/svg">
<path d="M25.7254 12.408H16.253V8.45234C16.2543 7.97907 16.44 7.52537 16.7694 7.19066C17.0987 6.85593 17.5452 6.66725 18.0109 6.66589H20.7182C21.5839 6.66589 22.4145 6.31635 23.0266 5.69429C23.639 5.072 23.9829 4.22821 23.9829 3.3482V0.765621C23.9829 0.342706 23.6455 0 23.2295 0C22.8134 0 22.4761 0.342706 22.4761 0.765621V3.3482C22.4761 3.82193 22.2909 4.27651 21.9611 4.61146C21.6315 4.94642 21.1844 5.13463 20.7182 5.13463H18.0109C17.1454 5.136 16.3158 5.486 15.7039 6.10786C15.092 6.72993 14.7476 7.57278 14.7462 8.45232V12.408H5.27378C3.87415 12.4107 2.53262 12.9777 1.54399 13.9843C0.555132 14.991 0 16.3553 0 17.7776V25.8928C0.167498 27.7705 1.25141 29.4373 2.88535 30.3302C4.51929 31.2233 6.4853 31.2233 8.11924 30.3302C9.75317 29.4372 10.8369 27.7704 11.0046 25.8928V24.0809C11.0046 23.9399 11.1169 23.8257 11.2557 23.8257H19.7443C19.8109 23.8257 19.8748 23.8526 19.9219 23.9004C19.969 23.9483 19.9954 24.0132 19.9954 24.0809V25.8826C20.1631 27.7603 21.2468 29.4271 22.8808 30.32C24.5147 31.213 26.4807 31.213 28.1146 30.32C29.7486 29.427 30.8325 27.7602 31 25.8826V17.7773C31 16.3549 30.4448 14.9907 29.456 13.984C28.4674 12.9773 27.1258 12.4104 25.7262 12.4077L25.7254 12.408ZM29.4924 25.8829C29.3511 27.2314 28.5603 28.4207 27.3817 29.0568C26.2032 29.6928 24.7908 29.6928 23.6123 29.0568C22.4338 28.4207 21.6427 27.2314 21.5014 25.8829V24.0812C21.5014 23.6075 21.3162 23.1531 20.9866 22.818C20.6568 22.483 20.2097 22.2948 19.7435 22.2948H11.255C10.7888 22.2948 10.3417 22.483 10.0119 22.818C9.68226 23.1531 9.49705 23.6075 9.49705 24.0812V25.8829C9.35579 27.2314 8.56473 28.4207 7.38622 29.0568C6.2077 29.6928 4.79528 29.6928 3.61676 29.0568C2.43825 28.4207 1.64737 27.2314 1.5061 25.8829V17.7776C1.50745 16.7627 1.90455 15.7897 2.61086 15.0721C3.31696 14.3546 4.27436 13.9508 5.27309 13.9495H25.7253C26.724 13.9508 27.6814 14.3546 28.3875 15.0721C29.0939 15.7897 29.491 16.7626 29.4923 17.7776L29.4924 25.8829ZM6.42839 15.7359C5.6824 15.7359 4.96689 16.0372 4.43954 16.5731C3.91193 17.1093 3.61571 17.8361 3.61571 18.5942C3.61571 19.3523 3.91191 20.0792 4.43954 20.6154C4.96691 21.1513 5.6824 21.4526 6.42839 21.4526C7.17415 21.4526 7.88966 21.1513 8.41724 20.6154C8.94462 20.0792 9.24107 19.3523 9.24107 18.5942C9.24107 17.8361 8.94464 17.1093 8.41724 16.5731C7.88964 16.0372 7.17415 15.7359 6.42839 15.7359ZM6.42839 19.9163C6.08174 19.9163 5.74921 19.7762 5.50434 19.5269C5.25926 19.2776 5.12203 18.9397 5.12248 18.5874C5.12293 18.2351 5.26106 17.8975 5.50658 17.6488C5.75233 17.4002 6.08508 17.2613 6.43172 17.2622C6.77815 17.2631 7.11021 17.4039 7.35463 17.6539C7.59903 17.9036 7.73559 18.242 7.73424 18.5942C7.73559 18.947 7.59859 19.286 7.35351 19.536C7.10843 19.786 6.77547 19.9264 6.42837 19.9264L6.42839 19.9163ZM27.3829 18.5942H27.3826C27.3826 19.0172 27.0454 19.3599 26.6292 19.3599H25.3234V20.6819C25.3234 21.1046 24.9861 21.4475 24.57 21.4475C24.154 21.4475 23.8166 21.1046 23.8166 20.6819V19.3701H22.5309C22.1147 19.3701 21.7775 19.0272 21.7775 18.6045C21.7775 18.1816 22.1147 17.8389 22.5309 17.8389H23.8368V16.5118C23.8368 16.0889 24.174 15.7462 24.5902 15.7462C25.0063 15.7462 25.3436 16.0889 25.3436 16.5118V17.8389H26.6495C27.0578 17.8498 27.3829 18.1896 27.3826 18.6045L27.3829 18.5942Z" fill="#FBFBFB"/>
</svg>
